<svg width="34" height="34" viewBox="0 0 34 34" fill="none" xmlns="http://www.w3.org/2000/svg">
<path d="M33.9345 18.5706C33.6292 15.5 32.2574 12.6053 30.0717 10.4195C28.2038 8.55165 25.9175 7.35133 23.5118 6.81762V5.13034C24.4944 4.8859 25.2247 3.9965 25.2247 2.93937C25.2247 1.69436 24.2119 0.681519 22.9669 0.681519H18.1856C16.9406 0.681519 15.9277 1.69436 15.9277 2.93937C15.9277 3.99644 16.6581 4.88583 17.6406 5.13034V6.82233C15.2423 7.35831 12.9636 8.55696 11.101 10.4195C10.6934 10.8272 10.3175 11.2548 9.97344 11.6992C9.95678 11.6979 9.94011 11.6966 9.92311 11.6966H5.19086C4.82416 11.6966 4.52679 11.9939 4.52679 12.3607C4.52679 12.7275 4.82416 13.0248 5.19086 13.0248H9.06984C8.58294 13.8399 8.19034 14.696 7.89151 15.5772H0.664073C0.297372 15.5772 0 15.8745 0 16.2413C0 16.608 0.297372 16.9053 0.664073 16.9053H7.51624C7.32486 17.7455 7.21502 18.6005 7.18666 19.4578H4.25007C3.88337 19.4578 3.58599 19.7552 3.58599 20.1219C3.58599 20.4887 3.88337 20.786 4.25007 20.786H7.20785C7.26389 21.6456 7.40209 22.5006 7.62249 23.3385H3.32036C2.95366 23.3385 2.65629 23.6358 2.65629 24.0026C2.65629 24.3693 2.95366 24.6666 3.32036 24.6666H8.04631C8.69776 26.39 9.71585 28.0052 11.101 29.3903C13.2888 31.5782 16.1866 32.9503 19.2603 33.254C19.699 33.2973 20.138 33.3187 20.5764 33.3187C23.1678 33.3187 25.7262 32.5688 27.897 31.1551C28.2044 30.9549 28.2913 30.5435 28.0911 30.2362C27.891 29.9289 27.4796 29.842 27.1723 30.0421C22.4204 33.1365 16.0564 32.4674 12.0401 28.4512C7.32771 23.7388 7.32771 16.0712 12.0401 11.3587C16.7524 6.64642 24.42 6.64642 29.1325 11.3587C33.1434 15.3697 33.8161 21.7283 30.732 26.4779C30.5322 26.7855 30.6197 27.1968 30.9272 27.3965C31.2349 27.5963 31.6461 27.5088 31.8458 27.2012C33.4936 24.6634 34.2354 21.5984 33.9345 18.5706ZM17.2559 2.93943C17.2559 2.42677 17.6729 2.00973 18.1856 2.00973H22.9669C23.4796 2.00973 23.8966 2.42677 23.8966 2.93943C23.8966 3.4521 23.4796 3.86913 22.9669 3.86913H22.8478H18.3046H18.1856C17.6729 3.86913 17.2559 3.45203 17.2559 2.93943ZM18.9687 6.59402V5.19728H22.1837V6.59163C21.1161 6.46466 20.0361 6.46546 18.9687 6.59402Z" fill="#3485FF"/>
<path d="M29.6025 28.2563C29.4272 28.2563 29.2566 28.3274 29.1331 28.4509C29.0089 28.5744 28.9385 28.7458 28.9385 28.9204C28.9385 29.0951 29.0089 29.2664 29.1331 29.3899C29.2566 29.5141 29.4273 29.5845 29.6025 29.5845C29.7772 29.5845 29.9479 29.5141 30.072 29.3899C30.1955 29.2664 30.2666 29.0951 30.2666 28.9204C30.2666 28.7458 30.1956 28.5744 30.072 28.4509C29.9479 28.3274 29.7771 28.2563 29.6025 28.2563Z" fill="#3485FF"/>
<path d="M20.5869 9.60315C14.9065 9.60315 10.2852 14.2244 10.2852 19.9048C10.2852 25.5853 14.9065 30.2065 20.5869 30.2065C26.2672 30.2065 30.8885 25.5853 30.8885 19.9048C30.8885 14.2244 26.2672 9.60315 20.5869 9.60315ZM20.5869 28.8784C15.6388 28.8784 11.6133 24.8529 11.6133 19.9048C11.6133 14.9568 15.6388 10.9313 20.5869 10.9313C25.5349 10.9313 29.5604 14.9568 29.5604 19.9048C29.5604 24.8529 25.5349 28.8784 20.5869 28.8784Z" fill="#3485FF"/>
<path d="M24.7872 14.765L21.4981 18.0541C21.223 17.9181 20.9136 17.8413 20.5866 17.8413C20.2595 17.8413 19.9501 17.9181 19.6751 18.0541L18.203 16.5821C17.9436 16.3228 17.5233 16.3228 17.2638 16.5821C17.0045 16.8414 17.0045 17.2619 17.2638 17.5212L18.7359 18.9933C18.5998 19.2683 18.523 19.5777 18.523 19.9048C18.523 21.0426 19.4487 21.9683 20.5866 21.9683C21.7245 21.9683 22.6501 21.0426 22.6501 19.9048C22.6501 19.5777 22.5733 19.2683 22.4373 18.9933L25.6299 15.8007L25.7264 15.7042C25.9857 15.4449 25.9857 15.0244 25.7264 14.765C25.467 14.5057 25.0467 14.5057 24.7872 14.765ZM20.5866 20.6402C20.1811 20.6402 19.8512 20.3103 19.8512 19.9048C19.8512 19.4994 20.1811 19.1695 20.5866 19.1695C20.9921 19.1695 21.322 19.4994 21.322 19.9048C21.322 20.3103 20.9921 20.6402 20.5866 20.6402Z" fill="#3485FF"/>
<path d="M27.6865 19.2489H27.0713C26.7046 19.2489 26.4072 19.5462 26.4072 19.913C26.4072 20.2797 26.7046 20.577 27.0713 20.577H27.6865C28.0532 20.577 28.3506 20.2797 28.3506 19.913C28.3506 19.5462 28.0532 19.2489 27.6865 19.2489Z" fill="#3485FF"/>
<path d="M14.1015 19.2327H13.4863C13.1196 19.2327 12.8223 19.53 12.8223 19.8967C12.8223 20.2635 13.1196 20.5608 13.4863 20.5608H14.1015C14.4682 20.5608 14.7656 20.2635 14.7656 19.8967C14.7656 19.53 14.4682 19.2327 14.1015 19.2327Z" fill="#3485FF"/>
<path d="M20.5938 14.0839C20.9604 14.0839 21.2578 13.7866 21.2578 13.4199V12.8047C21.2578 12.4379 20.9604 12.1406 20.5938 12.1406C20.2271 12.1406 19.9297 12.4379 19.9297 12.8047V13.4199C19.9297 13.7866 20.2271 14.0839 20.5938 14.0839Z" fill="#3485FF"/>
<path d="M20.5781 25.7257C20.2114 25.7257 19.9141 26.023 19.9141 26.3898V27.005C19.9141 27.3717 20.2114 27.669 20.5781 27.669C20.9448 27.669 21.2422 27.3717 21.2422 27.005V26.3898C21.2422 26.023 20.9448 25.7257 20.5781 25.7257Z" fill="#3485FF"/>
<path d="M0.664062 23.3383C0.489414 23.3383 0.318086 23.4093 0.19457 23.5328C0.0710547 23.6563 0 23.8277 0 24.0023C0 24.1776 0.0709883 24.3483 0.19457 24.4718C0.318152 24.5953 0.489414 24.6664 0.664062 24.6664C0.838711 24.6664 1.01004 24.5953 1.13349 24.4718C1.257 24.3483 1.32812 24.177 1.32812 24.0023C1.32812 23.8277 1.25707 23.6563 1.13349 23.5328C1.01004 23.4093 0.838711 23.3383 0.664062 23.3383Z" fill="#3485FF"/>
</svg>
